PathFileType	4	(X/Y/Z)	C:\Users\Biomechanik\SynologyDrive\AlexP\Athlete_03\Athlete_3_25_03_31\Deadlift_bw_02\marker_experimental.trc
DataRate	CameraRate	NumFrames	NumMarkers	Units	OrigDataRate	OrigDataStartFrame	OrigNumFrames
200.000000	200.000000	4	55	mm	200.000000	451	1804
Frame#	Time	BL			BR			GLAB			RFHD			LFHD			C7			T6			SPINMOL			SPINM2			SPINM3			T12			BELTOL			BELT2			BELT3			SACROL			SACR2			SACR3			LTHOL			LTH2			LTH3			LSHAOL			LSHA2			LSHA3			LHEE			LTOE			LM5			RTHOL			RTH2			RTH3			RSHAOL			RSHA2			RSHA3			RHEE			RTOE			RM5			STRN			XIPH			LACR			LUAOL			LUA2			LUA3			LLAOL			LLA2			LLA3			LWRR			LWRU			RACR			RUAOL			RUA2			RUA3			RLAOL			RLA2			RLA3			RWRR			RWRU			
		X1	Y1	Z1	X2	Y2	Z2	X3	Y3	Z3	X4	Y4	Z4	X5	Y5	Z5	X6	Y6	Z6	X7	Y7	Z7	X8	Y8	Z8	X9	Y9	Z9	X10	Y10	Z10	X11	Y11	Z11	X12	Y12	Z12	X13	Y13	Z13	X14	Y14	Z14	X15	Y15	Z15	X16	Y16	Z16	X17	Y17	Z17	X18	Y18	Z18	X19	Y19	Z19	X20	Y20	Z20	X21	Y21	Z21	X22	Y22	Z22	X23	Y23	Z23	X24	Y24	Z24	X25	Y25	Z25	X26	Y26	Z26	X27	Y27	Z27	X28	Y28	Z28	X29	Y29	Z29	X30	Y30	Z30	X31	Y31	Z31	X32	Y32	Z32	X33	Y33	Z33	X34	Y34	Z34	X35	Y35	Z35	X36	Y36	Z36	X37	Y37	Z37	X38	Y38	Z38	X39	Y39	Z39	X40	Y40	Z40	X41	Y41	Z41	X42	Y42	Z42	X43	Y43	Z43	X44	Y44	Z44	X45	Y45	Z45	X46	Y46	Z46	X47	Y47	Z47	X48	Y48	Z48	X49	Y49	Z49	X50	Y50	Z50	X51	Y51	Z51	X52	Y52	Z52	X53	Y53	Z53	X54	Y54	Z54	X55	Y55	Z55	

452	2.255	1214.247436523438	39.25701141357436	-2269.244384765625	1226.854248046875	29.83444023132326	-248.8297576904297	633.1683959960938	1088.85791015625	-1202.98046875	587.5778198242188	1124.266967773438	-1141.37255859375	596.0310668945312	1117.913696289062	-1276.86181640625	368.2472229003906	1026.652587890625	-1212.447509765625	228.1955108642578	952.3964233398439	-1211.381225585938	201.9262390136719	936.2131347656251	-1233.321899414062	192.4097747802734	931.8117675781251	-1184.008422851562	149.91357421875	896.4895629882814	-1221.45751953125	110.6756820678711	857.6549072265626	-1219.685180664062	73.58598327636719	862.9764404296876	-1232.630493164062	72.98509216308594	858.5277099609376	-1181.838745117188	24.9019660949707	823.9287719726564	-1211.2685546875	-71.56423187255859	731.5752563476564	-1237.52734375	-68.27932739257812	727.2311401367189	-1186.457397460938	-97.89715576171875	675.0066528320314	-1214.514892578125	155.1508483886719	478.0355224609376	-1429.065673828125	177.7676239013672	406.1525268554689	-1406.048461914062	206.1093902587891	444.7254638671876	-1423.057983398438	261.2154235839844	279.0980529785157	-1438.784301757812	190.7050323486328	243.8478546142579	-1425.9638671875	236.5821228027344	223.5240173339845	-1428.250610351562	79.25899505615234	71.01291656494149	-1318.657836914062	295.2402038574219	47.05148315429695	-1330.660400390625	242.5449371337891	29.76219367980966	-1431.37109375	149.7973937988281	473.4680480957032	-1008.404541015625	225.2803039550781	494.3511047363282	-990.5445556640625	208.2679595947266	451.6790771484376	-1010.923278808594	260.0754699707031	300.1233215332032	-998.8682861328125	258.9314575195312	221.4132537841797	-1004.227722167969	221.0879669189453	252.9055175781251	-1010.802978515625	79.35296630859375	65.87105560302741	-1117.665283203125	290.3985900878906	46.1169738769532	-1105.197875976562	237.0502624511719	39.82731628417975	-1003.858032226562	449.33837890625	849.1478881835939	-1214.844116210938	366.6092834472656	725.7003784179689	-1223.778076171875	418.748779296875	919.4216308593751	-1380.052612304688	404.3359680175781	770.4484863281251	-1466.722778320312	391.1361083984375	711.0042114257814	-1490.781372070312	418.5219421386719	709.7470703125001	-1446.464111328125	390.4930114746094	506.2385559082032	-1496.7783203125	336.9336853027344	450.6065979003907	-1514.542358398438	384.5470886230469	445.0020141601564	-1499.6123046875	379.1753234863281	336.4686279296876	-1499.2783203125	380.2840270996094	340.4454040527345	-1421.007690429688	424.5980224609375	916.7602539062501	-1054.438232421875	405.0117797851562	774.0377807617189	-974.4440307617188	417.2140197753906	711.4020385742189	-982.9689331054688	389.44873046875	719.1411132812501	-939.8457641601562	380.1600036621094	499.5204162597657	-938.4747924804688	426.08251953125	434.8584594726563	-946.0645751953125	377.6189270019531	436.7358703613282	-935.515625	394.0225830078125	344.8120422363282	-939.8326416015625	384.8916320800781	334.7282714843751	-1016.773254394531	
453	2.26	1214.247680664062	39.25679397583022	-2269.244140625	1226.85400390625	29.83473205566408	-248.8289947509766	632.810546875	1090.048950195312	-1203.01220703125	587.1817016601562	1125.413940429688	-1141.39990234375	595.6433715820312	1119.0693359375	-1276.891967773438	367.9762878417969	1027.566528320312	-1212.463256835938	227.9736633300781	953.1616821289064	-1211.3994140625	201.7158660888672	936.9514160156251	-1233.332153320312	192.2154083251953	932.5422363281251	-1184.0185546875	149.7420196533203	897.1849975585939	-1221.468627929688	110.5985870361328	858.2964477539064	-1219.678344726562	73.51027679443359	863.5630493164064	-1232.625610351562	72.90953063964844	859.1128540039064	-1181.851318359375	24.83661460876465	824.4692993164064	-1211.28466796875	-71.52136993408203	732.3018798828126	-1237.551635742188	-68.23274993896484	727.9494018554689	-1186.480834960938	-97.87636566162109	675.7374267578126	-1214.534057617188	155.0153656005859	478.491424560547	-1429.012451171875	177.5280303955078	406.5769042968751	-1406.008178710938	205.9227142333984	445.124481201172	-1422.988037109375	261.0047607421875	279.2240600585939	-1438.740844726562	190.5211334228516	243.9195709228516	-1425.924560546875	236.4142608642578	223.6273040771485	-1428.226806640625	79.24581909179688	70.9456329345704	-1318.687377929688	295.2140808105469	47.0892868041993	-1330.6875	242.52685546875	29.76860809326181	-1431.38623046875	149.6740875244141	473.9062805175782	-1008.566040039062	225.1903533935547	494.6939392089844	-990.7177124023438	208.1209564208984	452.0505065917969	-1011.113342285156	259.9198608398438	300.2610778808594	-998.9945068359375	258.8426818847656	221.5594482421876	-1004.294006347656	220.9660034179688	253.0032043457032	-1010.893920898438	79.33433532714844	65.84096527099616	-1117.642700195312	290.3997497558594	46.1261177062989	-1105.168823242188	237.0461730957031	39.82397460937506	-1003.854064941406	449.2313842773438	850.1182861328126	-1214.866577148438	366.62353515625	726.5747680664064	-1223.73486328125	418.5382995605469	920.3292236328126	-1380.080932617188	404.1380615234375	771.2633666992189	-1466.72216796875	391.0926513671875	711.8421020507814	-1490.748046875	418.3813781738281	710.5803222656251	-1446.434204101562	390.3803100585938	507.0335998535157	-1496.650512695312	336.8226013183594	451.3758544921876	-1514.361206054688	384.4548950195312	445.7881774902345	-1499.47119140625	379.0719909667969	337.2594604492189	-1499.123779296875	380.4150390625	341.3081359863282	-1420.787841796875	424.4262084960938	917.6538696289064	-1054.444580078125	404.8365783691406	774.8586425781251	-974.4761962890625	417.0541381835938	712.2207031250001	-983.0337524414062	389.2785949707031	719.9295043945314	-939.9105224609375	379.9330444335938	500.3079223632813	-938.6516723632812	425.8621520996094	435.6568603515626	-946.2362060546875	377.3789672851562	437.5224609375001	-935.7274780273438	393.7671813964844	345.6057739257813	-940.081298828125	385.0173645019531	335.6917419433594	-1017.304321289062	
454	2.265	1214.247802734375	39.25657272338881	-2269.24365234375	1226.853881835938	29.83503150939943	-248.8280334472656	632.443603515625	1091.312866210938	-1203.044067382812	586.77587890625	1126.633544921875	-1141.425659179688	595.2462768554688	1120.2978515625	-1276.920043945312	367.6965026855469	1028.54736328125	-1212.478393554688	227.7464752197266	953.9868164062501	-1211.420654296875	201.4993133544922	937.7495727539064	-1233.344848632812	192.0137481689453	933.3309936523439	-1184.031494140625	149.5663146972656	897.9378051757814	-1221.481811523438	110.5185699462891	858.9922485351564	-1219.677368164062	73.43280792236328	864.2024536132814	-1232.623779296875	72.83081817626953	859.7505493164064	-1181.868774414062	24.76872444152832	825.0609741210939	-1211.303466796875	-71.47127532958984	733.0878906250001	-1237.579345703125	-68.17909240722656	728.7252197265626	-1186.507934570312	-97.84833526611328	676.5255737304689	-1214.556762695312	154.8699340820312	478.9936523437501	-1428.957885742188	177.2694244384766	407.0399475097657	-1405.971069335938	205.7239379882812	445.559051513672	-1422.916870117188	260.7828063964844	279.3577575683595	-1438.695678710938	190.3278045654297	243.9946594238282	-1425.885131835938	236.2383117675781	223.7361907958985	-1428.2021484375	79.22904968261719	70.88173675537118	-1318.719116210938	295.1873474121094	47.12876129150398	-1330.714477539062	242.5089569091797	29.7731361389161	-1431.401733398438	149.5402221679688	474.3835144042969	-1008.732604980469	225.0924072265625	495.0683593750001	-990.8933715820312	207.9615325927734	452.4547119140626	-1011.307312011719	259.7525939941406	300.4042358398438	-999.1211547851562	258.747314453125	221.7085876464844	-1004.371704101562	220.8332977294922	253.1020507812501	-1010.984069824219	79.31523132324219	65.81174468994148	-1117.61865234375	290.4007263183594	46.13567352294929	-1105.139770507812	237.0432891845703	39.82009506225592	-1003.85009765625	449.1205139160156	851.1576538085939	-1214.888671875	366.63916015625	727.5148925781251	-1223.690185546875	418.3223266601562	921.3048095703126	-1380.10888671875	403.9366455078125	772.1442260742189	-1466.717895507812	391.0517272949219	712.7425537109376	-1490.711181640625	418.2395935058594	711.4763183593751	-1446.399291992188	390.2555847167969	507.894744873047	-1496.52392578125	336.6962585449219	452.2124938964845	-1514.172241210938	384.3494873046875	446.6404724121095	-1499.328735351562	378.954833984375	338.1168518066407	-1498.969970703125	380.5523986816406	342.2387084960939	-1420.554809570312	424.2490234375	918.6129150390626	-1054.449951171875	404.6526184082031	775.7463989257814	-974.5047607421875	416.8897399902344	713.1052246093751	-983.0919189453125	389.0946960449219	720.7883300781251	-939.9705200195312	379.6941223144531	501.1571960449219	-938.8294677734375	425.6275939941406	436.5163269042969	-946.4078979492188	377.1272277832031	438.3702087402344	-935.9467163085938	393.5026550292969	346.4627990722657	-940.342529296875	385.1235656738281	336.7054748535157	-1017.783874511719	
455	2.27	1214.248046875	39.25631713867202	-2269.2431640625	1226.853759765625	29.83528900146486	-248.8270416259766	632.0673828125	1092.65234375	-1203.076416015625	586.3602294921875	1127.928588867188	-1141.450073242188	594.83984375	1121.60205078125	-1276.946655273438	367.4075012207031	1029.597412109375	-1212.492919921875	227.5139465332031	954.8738403320314	-1211.445556640625	201.2768402099609	938.6096801757814	-1233.36083984375	191.8047637939453	934.1797485351564	-1184.048461914062	149.3869018554688	898.7492675781251	-1221.49755859375	110.4353332519531	859.7436523437501	-1219.682983398438	73.35369110107422	864.8966064453126	-1232.625610351562	72.74871826171875	860.4428100585939	-1181.89208984375	24.70064735412598	825.7057495117189	-1211.324462890625	-71.41335296630859	733.9345703125001	-1237.610717773438	-68.11788177490234	729.5596313476564	-1186.538696289062	-97.81233215332031	677.3721313476564	-1214.583129882812	154.71533203125	479.5430603027345	-1428.9013671875	176.9923858642578	407.5421447753907	-1405.937133789062	205.5138244628906	446.0296936035157	-1422.844482421875	260.5497436523438	279.4995727539064	-1438.648559570312	190.1253051757812	244.0733947753907	-1425.845336914062	236.0543518066406	223.8512573242188	-1428.17626953125	79.20868682861328	70.82178497314462	-1318.753051757812	295.1603698730469	47.16963958740242	-1330.741088867188	242.4920959472656	29.77510833740243	-1431.41748046875	149.3960266113281	474.9010314941407	-1008.903747558594	224.9865875244141	495.4753417968751	-991.071044921875	207.7898712158203	452.8927917480469	-1011.504150390625	259.5730590820312	300.5535583496094	-999.247802734375	258.6452331542969	221.8612670898438	-1004.460571289062	220.6899871826172	253.2032775878907	-1011.0732421875	79.29572296142578	65.78375244140632	-1117.593139648438	290.401611328125	46.14567565917976	-1105.111083984375	237.0417785644531	39.8155250549317	-1003.846252441406	449.005615234375	852.2691040039064	-1214.910766601562	366.6569213867188	728.5233154296876	-1223.64501953125	418.1007385253906	922.3515625000001	-1380.137084960938	403.73291015625	773.0947265625001	-1466.70947265625	391.0095825195312	713.7066040039064	-1490.670043945312	418.0974426269531	712.4385986328126	-1446.359008789062	390.119140625	508.8251342773439	-1496.399536132812	336.5547485351562	453.1195068359376	-1513.97509765625	384.2307739257812	447.5620117187501	-1499.1845703125	378.8244018554688	339.0437011718751	-1498.81640625	380.69580078125	343.2396545410157	-1420.308471679688	424.066162109375	919.6403198242189	-1054.45458984375	404.4595642089844	776.7036132812501	-974.5297241210938	416.7201538085938	714.0593872070314	-983.14306640625	388.8974304199219	721.7208862304689	-940.0255737304688	379.4432678222656	502.0709228515626	-939.0078125	425.3782653808594	437.4389038085938	-946.579345703125	376.8637390136719	439.2817077636719	-936.1731567382812	393.2285461425781	347.3857727050782	-940.6163330078125	385.2156066894531	337.7776489257813	-1018.223510742188	
